<svg xmlns="http://www.w3.org/2000/svg" viewBox="0 0 533.5 544.3">
  <path fill="#4285f4" d="M533.5 278.4c0-17.4-1.6-34.1-4.6-50.4H272v95.4h147.4c-6.4 34.4-26 63.6-55.4 83v68h89.4c52.3-48.2 80.1-119.3 80.1-196z"/>
  <path fill="#34a853" d="M272 544.3c73.5 0 135.2-24.3 180.2-66.2l-89.4-68c-24.7 16.6-56.4 26.4-90.8 26.4-69.8 0-128.9-47.1-150.1-110.4h-92.5v69.5c44.2 87.6 135.5 148.7 242.6 148.7z"/>
  <path fill="#fbbc05" d="M121.9 326.1c-10.7-31.8-10.7-66.1 0-97.9v-69.5h-92.5c-40.7 81.5-40.7 175.3 0 256.8z"/>
  <path fill="#ea4335" d="M272 107.7c38.5-.6 75.8 13.9 104.1 40.6l78-78.1C408.1 25.1 344.1-.1 272 0 165 0 73.7 61.1 29.4 148.7l92.5 69.5c21.1-63.3 80.2-110.5 150.1-110.5z"/>
</svg>


